<svg xmlns="http://www.w3.org/2000/svg" viewBox="0 0 44.9 59.87"><title>icon_boxformH</title><g id="Livello_2" data-name="Livello 2"><g id="Livello_1-2" data-name="Livello 1"><path d="M39.32,0C30,.54,11,2.53.21,9.94,0,10,0,10,0,10V59.87c11.23-7.55,30.81-9.49,39.94-10a5.17,5.17,0,0,0,5-5.06V5.1A5.21,5.21,0,0,0,39.32,0Z" style="fill:#3dcd58"/><polyline points="13.3 36.66 16.08 36.66 16.08 28.58 17.52 28.58 17.52 23.22 22.08 23.22 22.08 32.02 24.24 32.02 24.24 34.9 26.69 34.9 26.69 25.86 29.3 25.86 29.3 36.66" style="fill:none;stroke:#fff;stroke-linecap:round;stroke-linejoin:round;fill-rule:evenodd"/></g></g></svg>