<svg xmlns="http://www.w3.org/2000/svg" viewBox="0 0 59.78 59.78"><title>icon_boxsolA</title><g id="Livello_2" data-name="Livello 2"><g id="Livello_1-2" data-name="Livello 1"><path d="M52.31,20.55h5.6a1.87,1.87,0,1,0,0-3.74h-5.6V15a7.48,7.48,0,0,0-7.47-7.48H43V1.87a1.87,1.87,0,1,0-3.74,0v5.6H31.76V1.87a1.87,1.87,0,0,0-3.74,0v5.6H20.55V1.87a1.87,1.87,0,0,0-3.74,0v5.6H15A7.48,7.48,0,0,0,7.47,15v1.86H1.87a1.87,1.87,0,0,0,0,3.74h5.6V28H1.87a1.87,1.87,0,0,0,0,3.74h5.6v7.47H1.87a1.87,1.87,0,1,0,0,3.74h5.6v1.87A7.48,7.48,0,0,0,15,52.31h1.86v5.6a1.87,1.87,0,0,0,3.74,0v-5.6H28v5.6a1.87,1.87,0,0,0,3.74,0v-5.6h7.47v5.6a1.87,1.87,0,0,0,3.74,0v-5.6h1.87a7.48,7.48,0,0,0,7.47-7.47V43h5.6a1.87,1.87,0,1,0,0-3.74h-5.6V31.76h5.6a1.87,1.87,0,1,0,0-3.74h-5.6Z" style="fill:#4888c8"/><polyline points="34.05 39.89 24.33 39.89 24.33 28.81 28.2 32.68 28.2 28.81 32.2 32.81 32.2 28.54 36.3 32.64 37.15 23.89 38.54 23.89 39.45 39.89" style="fill:none;stroke:#fff;stroke-linecap:round;stroke-linejoin:round;fill-rule:evenodd"/></g></g></svg>