<svg xmlns="http://www.w3.org/2000/svg" viewBox="0 0 44.9 59.87"><title>icon_boxformD</title><g id="Livello_2" data-name="Livello 2"><g id="Livello_1-2" data-name="Livello 1"><path d="M39.32,0C30,.54,11,2.53.21,9.94,0,10,0,10,0,10V59.87c11.23-7.55,30.81-9.49,39.94-10a5.17,5.17,0,0,0,5-5.06V5.1A5.21,5.21,0,0,0,39.32,0Z" style="fill:#ffd203"/><path d="M24.24,37.94h4.89a1.32,1.32,0,0,0,1.32-1.32V23.25a1.31,1.31,0,0,0-1.32-1.31H15.76a1.31,1.31,0,0,0-1.31,1.31V36.62a1.32,1.32,0,0,0,1.31,1.32h6.69V34.36A4.45,4.45,0,1,1,24.24,34" style="fill:none;stroke:#fff;stroke-linecap:round;stroke-linejoin:round;fill-rule:evenodd"/><line x1="22.45" y1="28.1" x2="22.45" y2="31.83" style="fill:none;stroke:#fff;stroke-linecap:round;stroke-linejoin:round"/></g></g></svg>