<svg id="Livello_1" data-name="Livello 1" xmlns="http://www.w3.org/2000/svg" viewBox="0 0 133 72"><title>logo_white</title><path d="M19.06,9.13a5.28,5.28,0,0,1,2.49.56,4,4,0,0,1,1.72,1.72,6.11,6.11,0,0,1,.63,2.95v6.78H20.46V14.89a3.13,3.13,0,0,0-.59-2.11,2.11,2.11,0,0,0-1.67-.68,2.59,2.59,0,0,0-1.34.34,2.31,2.31,0,0,0-.93,1,4,4,0,0,0-.33,1.74v5.94H12.17V14.89a3.18,3.18,0,0,0-.58-2.11,2.09,2.09,0,0,0-1.66-.68,2.66,2.66,0,0,0-1.35.34,2.35,2.35,0,0,0-.92,1,4,4,0,0,0-.33,1.74v5.94H3.9V9.3H7.18v3.24l-.62-.95A4.19,4.19,0,0,1,8.31,9.76a5.22,5.22,0,0,1,2.58-.63,5,5,0,0,1,2.85.82,4,4,0,0,1,1.62,2.52l-1.21-.33a4.78,4.78,0,0,1,1.9-2.2A5.63,5.63,0,0,1,19.06,9.13Z" style="fill:#fff"/><path d="M32.7,21.32a6.93,6.93,0,0,1-3.36-.8A6.08,6.08,0,0,1,27,18.36a5.91,5.91,0,0,1-.85-3.14A6,6,0,0,1,27,12.06a6.05,6.05,0,0,1,2.31-2.15,7.58,7.58,0,0,1,6.7,0,5.77,5.77,0,0,1,3.15,5.31A5.83,5.83,0,0,1,36,20.52,6.93,6.93,0,0,1,32.7,21.32Zm0-2.82a3,3,0,0,0,1.54-.4A2.78,2.78,0,0,0,35.31,17a3.56,3.56,0,0,0,.4-1.75,3.58,3.58,0,0,0-.4-1.76,2.82,2.82,0,0,0-1.07-1.12,3.07,3.07,0,0,0-1.54-.4,3,3,0,0,0-1.54.4,2.87,2.87,0,0,0-1.09,1.12,3.58,3.58,0,0,0-.41,1.76A3.57,3.57,0,0,0,30.07,17a2.83,2.83,0,0,0,1.09,1.13A2.92,2.92,0,0,0,32.7,18.5Z" style="fill:#fff"/><path d="M48.67,9.13a5.43,5.43,0,0,1,2.52.56,4.09,4.09,0,0,1,1.75,1.72,6.11,6.11,0,0,1,.63,2.95v6.78H50.14V14.89a3,3,0,0,0-.63-2.11,2.28,2.28,0,0,0-1.77-.68,3.05,3.05,0,0,0-1.46.34,2.42,2.42,0,0,0-1,1,4,4,0,0,0-.36,1.81v5.85H41.47V9.3h3.28v3.28l-.61-1A4.32,4.32,0,0,1,46,9.77,5.59,5.59,0,0,1,48.67,9.13Z" style="fill:#fff"/><path d="M61.85,21.32a6.1,6.1,0,0,1-3-.76,5.63,5.63,0,0,1-2.12-2.13,6.36,6.36,0,0,1-.78-3.21A6.41,6.41,0,0,1,56.71,12a5.51,5.51,0,0,1,2.12-2.11,6.09,6.09,0,0,1,3-.75,5,5,0,0,1,2.61.66,4.34,4.34,0,0,1,1.74,2,8.28,8.28,0,0,1,.62,3.43,8.45,8.45,0,0,1-.6,3.42,4.22,4.22,0,0,1-1.7,2A5.13,5.13,0,0,1,61.85,21.32Zm.59-2.82A2.93,2.93,0,0,0,64,18.1,2.89,2.89,0,0,0,65.05,17a3.56,3.56,0,0,0,.4-1.75,3.58,3.58,0,0,0-.4-1.76A2.93,2.93,0,0,0,64,12.34a3.13,3.13,0,0,0-3.06,0,2.93,2.93,0,0,0-1.09,1.12,3.58,3.58,0,0,0-.41,1.76A3.57,3.57,0,0,0,59.81,17,2.89,2.89,0,0,0,60.9,18.1,3,3,0,0,0,62.44,18.5Zm3.1,2.64V18.72l.07-3.52-.22-3.5V4.82h3.43V21.14Z" style="fill:#fff"/><path d="M77.62,21.32a7,7,0,0,1-3.36-.8A6.08,6.08,0,0,1,72,18.36a5.9,5.9,0,0,1-.84-3.14A6,6,0,0,1,72,12.06a6.05,6.05,0,0,1,2.31-2.15,7.58,7.58,0,0,1,6.7,0,5.83,5.83,0,0,1,2.31,2.14,5.93,5.93,0,0,1,.84,3.17,5.9,5.9,0,0,1-.84,3.14A5.8,5.8,0,0,1,81,20.52,6.9,6.9,0,0,1,77.62,21.32Zm0-2.82a3,3,0,0,0,1.54-.4A2.87,2.87,0,0,0,80.24,17a3.68,3.68,0,0,0,.39-1.75,3.69,3.69,0,0,0-.39-1.76,2.91,2.91,0,0,0-1.08-1.12,3.16,3.16,0,0,0-3.08,0A2.93,2.93,0,0,0,75,13.46a3.58,3.58,0,0,0-.41,1.76A3.57,3.57,0,0,0,75,17a2.89,2.89,0,0,0,1.09,1.13A3,3,0,0,0,77.62,18.5Z" style="fill:#fff"/><path d="M11.48,44.38a16.65,16.65,0,0,1-4.71-.66A10.92,10.92,0,0,1,3.13,42l1.62-3.57A11.43,11.43,0,0,0,7.86,40a11.49,11.49,0,0,0,3.65.6,7.45,7.45,0,0,0,2.27-.28,2.52,2.52,0,0,0,1.27-.78,1.7,1.7,0,0,0,.41-1.14,1.54,1.54,0,0,0-.64-1.3,5.27,5.27,0,0,0-1.7-.79c-.7-.21-1.48-.4-2.33-.59A23.31,23.31,0,0,1,8.25,35a10.53,10.53,0,0,1-2.33-1,5.18,5.18,0,0,1-1.72-1.7,5,5,0,0,1-.66-2.69,5.71,5.71,0,0,1,1-3.21A6.41,6.41,0,0,1,7.37,24a11.65,11.65,0,0,1,4.81-.87,15.77,15.77,0,0,1,3.81.46A10.82,10.82,0,0,1,19.3,25l-1.46,3.6A12.81,12.81,0,0,0,15,27.37,10.74,10.74,0,0,0,12.16,27a6.82,6.82,0,0,0-2.26.32,2.6,2.6,0,0,0-1.26.84,1.94,1.94,0,0,0-.38,1.18A1.53,1.53,0,0,0,8.9,30.6a5.07,5.07,0,0,0,1.7.77c.71.2,1.48.39,2.33.59s1.7.42,2.55.67a10.24,10.24,0,0,1,2.33,1,5.15,5.15,0,0,1,1.71,1.7A4.93,4.93,0,0,1,20.18,38a5.48,5.48,0,0,1-1,3.16,6.72,6.72,0,0,1-2.88,2.32A11.78,11.78,0,0,1,11.48,44.38Z" style="fill:#fff"/><path d="M33.24,44.38a12.25,12.25,0,0,1-4.41-.78,10.31,10.31,0,0,1-3.52-2.21A10.14,10.14,0,0,1,23,38a11.15,11.15,0,0,1,0-8.49,10,10,0,0,1,2.34-3.37A10.55,10.55,0,0,1,28.85,24a13,13,0,0,1,9.24.14,9.45,9.45,0,0,1,3.62,2.71l-3.05,2.82a7,7,0,0,0-2.34-1.81,6.59,6.59,0,0,0-2.81-.6,7.25,7.25,0,0,0-2.64.47A5.93,5.93,0,0,0,28.79,29a6.25,6.25,0,0,0-1.36,2.08,7.64,7.64,0,0,0,0,5.33,6,6,0,0,0,3.44,3.43,7.25,7.25,0,0,0,2.64.46,6.59,6.59,0,0,0,2.81-.6,6.92,6.92,0,0,0,2.34-1.83l3.05,2.82a9.57,9.57,0,0,1-3.62,2.72A12.13,12.13,0,0,1,33.24,44.38Z" style="fill:#fff"/><path d="M53.89,44.38A9.28,9.28,0,0,1,47.07,42q-2.46-2.43-2.46-7V23.52h4.74V34.83a6.1,6.1,0,0,0,1.2,4.22,4.38,4.38,0,0,0,3.37,1.28,4.37,4.37,0,0,0,3.37-1.28,6.1,6.1,0,0,0,1.2-4.22V23.52h4.69V35q0,4.52-2.46,7A9.3,9.3,0,0,1,53.89,44.38Z" style="fill:#fff"/><path d="M77.82,44.38a12.57,12.57,0,0,1-4.49-.79,10.68,10.68,0,0,1-3.58-2.23A10.16,10.16,0,0,1,67.41,38a11,11,0,0,1,0-8.43,9.93,9.93,0,0,1,2.36-3.37A10.74,10.74,0,0,1,73.34,24a13,13,0,0,1,8.92,0,10.6,10.6,0,0,1,3.54,2.23,10.39,10.39,0,0,1,2.36,3.35A10.28,10.28,0,0,1,89,33.77,10.43,10.43,0,0,1,88.16,38a10.26,10.26,0,0,1-2.36,3.37,10.88,10.88,0,0,1-3.54,2.21A12.33,12.33,0,0,1,77.82,44.38Zm0-4.05a6.79,6.79,0,0,0,2.54-.46,6.22,6.22,0,0,0,2-1.35,6.1,6.1,0,0,0,1.36-2.08,7.49,7.49,0,0,0,0-5.33A6.36,6.36,0,0,0,82.38,29a5.87,5.87,0,0,0-2-1.35,6.84,6.84,0,0,0-2.55-.47,6.7,6.7,0,0,0-2.53.47,6.06,6.06,0,0,0-2,1.35,6.25,6.25,0,0,0-1.36,2.08,7.58,7.58,0,0,0,0,5.31,6.12,6.12,0,0,0,1.35,2.1,6,6,0,0,0,2,1.35A6.84,6.84,0,0,0,77.79,40.33Z" style="fill:#fff"/><path d="M92.58,44V23.52h4.75V40.16h10.28V44Z" style="fill:#fff"/><path d="M107.7,44l9.13-20.51h4.69L130.69,44h-5l-7.5-18.11h1.87L112.56,44Zm4.56-4.4,1.26-3.6h10.55l1.29,3.6Z" style="fill:#fff"/><path d="M3.39,68.84V47.14H5V67.41H17.46v1.43Z" style="fill:#fff"/><path d="M17.89,68.84l10-21.7h1.58l10,21.7H37.73L28.31,48.13H29L19.6,68.84Zm3.66-6.11.53-1.33h13l.52,1.33Z" style="fill:#fff"/><path d="M48.33,68.84l-9.67-21.7H40.4l9.24,20.74h-1l9.26-20.74h1.65l-9.67,21.7Z" style="fill:#fff"/><path d="M72.11,69a12,12,0,0,1-4.48-.82A10.7,10.7,0,0,1,64,65.84a10.51,10.51,0,0,1-2.38-3.5,11.84,11.84,0,0,1,0-8.71A10.51,10.51,0,0,1,64,50.13a10.85,10.85,0,0,1,3.59-2.33,12.65,12.65,0,0,1,9,0,10.64,10.64,0,0,1,6,5.8,11.61,11.61,0,0,1,0,8.77,10.69,10.69,0,0,1-2.37,3.49,10.82,10.82,0,0,1-3.58,2.31A11.94,11.94,0,0,1,72.11,69Zm0-1.46A10.11,10.11,0,0,0,76,66.82a9.1,9.1,0,0,0,3.06-2,9.27,9.27,0,0,0,2-3,10.2,10.2,0,0,0,0-7.58,9.3,9.3,0,0,0-5.09-5,10.77,10.77,0,0,0-7.69,0,9.35,9.35,0,0,0-3.09,2,9.06,9.06,0,0,0-2,3,10.2,10.2,0,0,0,0,7.58,9.14,9.14,0,0,0,2,3,9.33,9.33,0,0,0,3.09,2A10.09,10.09,0,0,0,72.11,67.53Z" style="fill:#fff"/><path d="M88.88,68.84V47.14h7.78a11.61,11.61,0,0,1,4.68.86,6.73,6.73,0,0,1,3,2.5,7.12,7.12,0,0,1,1.06,4,7,7,0,0,1-1.06,3.89,6.75,6.75,0,0,1-3,2.51,11.26,11.26,0,0,1-4.68.89H89.75l.71-.75v7.85Zm1.58-7.75-.71-.75h6.91A8,8,0,0,0,102,58.79a5.39,5.39,0,0,0,1.81-4.34A5.37,5.37,0,0,0,102,50.1a8,8,0,0,0-5.32-1.54H89.75l.71-.77ZM104,68.84,98.31,61h1.79l5.65,7.88Z" style="fill:#fff"/><path d="M120.41,69a11.94,11.94,0,0,1-4.48-.82,10.74,10.74,0,0,1-3.6-2.33,10.63,10.63,0,0,1-2.37-3.5,11.84,11.84,0,0,1,0-8.71,10.63,10.63,0,0,1,2.37-3.5,10.9,10.9,0,0,1,3.6-2.33,12.65,12.65,0,0,1,9,0,10.64,10.64,0,0,1,6,5.8,11.74,11.74,0,0,1,0,8.77,10.69,10.69,0,0,1-2.37,3.49,10.82,10.82,0,0,1-3.58,2.31A12,12,0,0,1,120.41,69Zm0-1.46a10.05,10.05,0,0,0,3.84-.71,9.14,9.14,0,0,0,3.07-2,9.27,9.27,0,0,0,2-3,10.2,10.2,0,0,0,0-7.58,9.27,9.27,0,0,0-5.1-5,10.77,10.77,0,0,0-7.69,0,9.41,9.41,0,0,0-3.08,2,9.24,9.24,0,0,0-2,3,10.34,10.34,0,0,0,0,7.58,9.26,9.26,0,0,0,5.13,5A10.11,10.11,0,0,0,120.41,67.53Z" style="fill:#fff"/></svg>